<?xml version="1.0" encoding="UTF-8" ?>
<!DOCTYPE svg PUBLIC "-//W3C//DTD SVG 1.1//EN" "http://www.w3.org/Graphics/SVG/1.1/DTD/svg11.dtd">
<svg width="785pt" height="340pt" viewBox="0 0 785 340" version="1.1" xmlns="http://www.w3.org/2000/svg">
<g id="#f0db4fff">
<path fill="#f0db4f" opacity="1.00" d=" M 0.00 0.00 L 785.00 0.00 L 785.00 340.00 L 0.00 340.00 L 0.00 0.00 M 437.56 96.64 C 427.25 98.85 417.59 104.93 411.95 113.96 C 405.92 123.27 405.04 135.10 407.24 145.75 C 408.98 154.75 414.30 162.86 421.57 168.39 C 432.83 177.67 447.15 181.56 459.98 188.04 C 463.90 190.23 468.10 192.70 470.12 196.91 C 473.00 202.64 471.29 210.30 465.91 213.94 C 458.59 218.94 448.84 218.85 440.60 216.49 C 432.20 214.01 426.22 207.19 421.61 200.10 C 413.27 204.40 405.20 209.25 397.16 214.11 C 401.68 223.00 408.64 230.66 417.24 235.75 C 431.04 244.21 448.00 245.97 463.79 243.69 C 475.55 241.84 487.35 236.38 494.39 226.43 C 502.30 215.59 503.07 201.00 499.53 188.42 C 496.97 179.48 490.56 172.19 483.03 166.99 C 472.83 159.72 460.89 155.62 449.60 150.44 C 445.69 148.56 441.67 146.52 438.71 143.26 C 434.22 137.86 434.68 128.72 440.42 124.37 C 445.41 120.58 452.42 120.56 458.07 122.83 C 463.23 124.86 466.55 129.54 469.40 134.06 C 477.25 129.23 485.08 124.33 492.66 119.09 C 487.23 109.20 478.41 100.72 467.38 97.57 C 457.73 94.79 447.36 94.47 437.56 96.64 M 350.84 96.93 C 350.71 131.31 350.85 165.69 350.78 200.07 C 350.64 204.83 350.07 210.02 346.72 213.71 C 342.76 218.21 336.00 218.20 330.53 217.45 C 322.95 215.80 319.19 208.47 315.22 202.59 C 307.14 207.39 299.10 212.26 291.09 217.19 C 295.25 226.54 302.58 234.54 311.72 239.22 C 321.91 244.49 333.79 245.41 345.03 244.05 C 355.02 242.83 364.99 238.40 371.39 230.44 C 378.08 222.25 380.61 211.44 380.78 201.05 C 380.77 166.37 380.78 131.69 380.77 97.01 C 370.80 96.74 360.82 96.87 350.84 96.93 Z" />
</g>
<g id="#313230ff">
<path fill="#313230" opacity="1.00" d=" M 437.56 96.64 C 447.36 94.47 457.73 94.79 467.38 97.57 C 478.41 100.72 487.23 109.20 492.66 119.09 C 485.08 124.33 477.25 129.23 469.40 134.06 C 466.55 129.54 463.23 124.86 458.07 122.83 C 452.42 120.56 445.41 120.58 440.42 124.37 C 434.68 128.72 434.22 137.86 438.71 143.26 C 441.67 146.52 445.69 148.56 449.60 150.44 C 460.89 155.62 472.83 159.72 483.03 166.99 C 490.56 172.19 496.97 179.48 499.53 188.42 C 503.07 201.00 502.30 215.59 494.39 226.43 C 487.35 236.38 475.55 241.84 463.79 243.69 C 448.00 245.97 431.04 244.21 417.24 235.75 C 408.64 230.66 401.68 223.00 397.16 214.11 C 405.20 209.25 413.27 204.40 421.61 200.10 C 426.22 207.19 432.20 214.01 440.60 216.49 C 448.84 218.85 458.59 218.94 465.91 213.94 C 471.29 210.30 473.00 202.64 470.12 196.91 C 468.10 192.70 463.90 190.23 459.98 188.04 C 447.15 181.56 432.83 177.67 421.57 168.39 C 414.30 162.86 408.98 154.75 407.24 145.75 C 405.04 135.10 405.92 123.27 411.95 113.96 C 417.59 104.93 427.25 98.85 437.56 96.64 Z" />
<path fill="#313230" opacity="1.00" d=" M 350.84 96.93 C 360.82 96.87 370.80 96.74 380.77 97.01 C 380.78 131.69 380.77 166.37 380.78 201.05 C 380.61 211.44 378.08 222.25 371.39 230.44 C 364.99 238.40 355.02 242.83 345.03 244.05 C 333.79 245.41 321.91 244.49 311.72 239.22 C 302.58 234.54 295.25 226.54 291.09 217.19 C 299.10 212.26 307.14 207.39 315.22 202.59 C 319.19 208.47 322.95 215.80 330.53 217.45 C 336.00 218.20 342.76 218.21 346.72 213.71 C 350.07 210.02 350.64 204.83 350.78 200.07 C 350.85 165.69 350.71 131.31 350.84 96.93 Z" />
</g>
</svg>
