<?xml version="1.0" encoding="UTF-8" ?>
<!DOCTYPE svg PUBLIC "-//W3C//DTD SVG 1.1//EN" "http://www.w3.org/Graphics/SVG/1.1/DTD/svg11.dtd">
<svg width="225pt" height="225pt" viewBox="0 0 225 225" version="1.1" xmlns="http://www.w3.org/2000/svg">
<g id="#f0db4fff">
<path fill="#f0db4f" opacity="1.00" d=" M 0.00 0.00 L 225.00 0.00 L 225.00 225.00 L 0.00 225.00 L 0.00 0.00 M 153.41 106.45 C 138.75 114.26 135.94 135.61 145.69 148.32 C 151.47 155.73 160.29 159.68 168.73 163.22 C 173.66 165.47 178.99 167.25 183.09 170.93 C 187.01 174.49 187.06 181.47 182.91 184.90 C 178.35 188.85 171.71 189.00 166.07 187.92 C 159.39 186.57 154.35 181.40 150.84 175.84 C 145.10 178.79 139.72 182.40 133.95 185.30 C 135.14 189.22 137.95 192.37 140.69 195.31 C 148.55 203.33 159.94 206.99 170.98 207.09 C 180.01 207.30 189.51 205.41 196.79 199.79 C 210.50 189.47 210.52 166.34 197.61 155.37 C 190.66 149.35 182.02 145.88 173.65 142.34 C 170.08 140.76 166.37 139.20 163.48 136.50 C 159.14 132.45 160.08 124.15 165.62 121.61 C 170.75 119.41 177.53 120.36 181.17 124.84 C 182.54 126.15 183.25 128.25 184.98 129.09 C 189.63 126.46 193.91 123.23 198.52 120.52 C 199.20 119.88 200.83 119.46 200.50 118.26 C 196.74 111.91 191.06 106.36 183.91 104.08 C 173.99 100.87 162.62 101.33 153.41 106.45 M 101.19 103.26 C 100.85 127.86 101.20 152.47 101.01 177.07 C 100.99 180.88 99.74 185.26 96.11 187.14 C 92.78 188.65 88.83 188.69 85.36 187.61 C 80.87 185.91 78.69 181.34 76.08 177.66 C 70.39 181.08 64.61 184.36 59.09 188.05 C 63.57 197.62 72.67 204.88 83.18 206.55 C 93.77 208.08 105.98 206.84 113.94 198.94 C 120.77 192.23 122.39 182.17 122.19 172.99 C 122.00 149.75 122.51 126.49 121.93 103.26 C 115.02 103.41 108.10 103.41 101.19 103.26 Z" />
</g>
<g id="#323330ff">
<path fill="#323330" opacity="1.00" d=" M 153.41 106.45 C 162.62 101.33 173.99 100.87 183.91 104.08 C 191.06 106.36 196.74 111.91 200.50 118.26 C 200.83 119.46 199.20 119.88 198.52 120.52 C 193.91 123.23 189.63 126.46 184.98 129.09 C 183.25 128.25 182.54 126.15 181.17 124.84 C 177.53 120.36 170.75 119.41 165.62 121.61 C 160.08 124.15 159.14 132.45 163.48 136.50 C 166.37 139.20 170.08 140.76 173.65 142.34 C 182.02 145.88 190.66 149.35 197.61 155.37 C 210.52 166.34 210.50 189.47 196.79 199.79 C 189.51 205.41 180.01 207.30 170.98 207.09 C 159.94 206.99 148.55 203.33 140.69 195.31 C 137.95 192.37 135.14 189.22 133.95 185.30 C 139.72 182.40 145.10 178.79 150.84 175.84 C 154.35 181.40 159.39 186.57 166.07 187.92 C 171.71 189.00 178.35 188.85 182.91 184.90 C 187.06 181.47 187.01 174.49 183.09 170.93 C 178.99 167.25 173.66 165.47 168.73 163.22 C 160.29 159.68 151.47 155.73 145.69 148.32 C 135.94 135.61 138.75 114.26 153.41 106.45 Z" />
<path fill="#323330" opacity="1.00" d=" M 101.19 103.26 C 108.10 103.41 115.02 103.41 121.93 103.26 C 122.51 126.49 122.00 149.75 122.19 172.99 C 122.39 182.17 120.77 192.23 113.94 198.94 C 105.98 206.84 93.77 208.08 83.18 206.55 C 72.67 204.88 63.57 197.62 59.09 188.05 C 64.61 184.36 70.39 181.08 76.08 177.66 C 78.69 181.34 80.87 185.91 85.36 187.61 C 88.83 188.69 92.78 188.65 96.11 187.14 C 99.74 185.26 100.99 180.88 101.01 177.07 C 101.20 152.47 100.85 127.86 101.19 103.26 Z" />
</g>
</svg>
